# AST/ASF file generated using VICON BodyLanguage
# -----------------------------------------------
:version 1.10
:name VICON
:units
  mass 1.0
  length 0.45
  angle deg
:documentation
   .ast/.asf automatically generated from VICON data using
   VICON BodyBuilder and BodyLanguage model FoxedUp or BRILLIANT.MOD
:root
   order TX TY TZ RX RY RZ
   axis XYZ
   position 0 0 0  
   orientation 0 0 0 
:bonedata
  begin
     id 1 
     name lhipjoint
     direction 0.635376 -0.686425 0.353719 
     length 2.47244 
     axis 0 0 0  XYZ
  end
  begin
     id 2 
     name lfemur
     direction 0.34202 -0.939693 0  
     length 7.25268  
     axis 0 0 20  XYZ
    dof rx ry rz
    limits (-160.0 20.0)
           (-70.0 70.0)
           (-60.0 70.0)
  end
  begin
     id 3 
     name ltibia
     direction 0.34202 -0.939693 0   
     length 7.6767   
     axis 0 0 20   XYZ
    dof rx
    limits (-10.0 170.0)
  end
  begin
     id 4 
     name lfoot
     direction 0.0803374 -0.220725 0.972022   
     length 2.22945   
     axis -90 7.62852e-016 20   XYZ
    dof rx rz
    limits (-45.0 90.0)
           (-70.0 20.0)
  end
  begin
     id 5 
     name ltoes
     direction 1.53579e-011 -4.21994e-011 1   
     length 1.11848   
     axis -90 7.62852e-016 20   XYZ
    dof rx
    limits (-90.0 20.0)
  end
  begin
     id 6 
     name rhipjoint
     direction -0.664428 -0.664335 0.342336   
     length 2.55466  
     axis 0 0 0  XYZ 
  end
  begin
     id 7 
     name rfemur
     direction -0.34202 -0.939693 0   
     length 6.83172   
     axis 0 0 -20   XYZ
    dof rx ry rz
    limits (-160.0 20.0)
           (-70.0 70.0)
           (-70.0 60.0)
  end
  begin
     id 8 
     name rtibia
     direction -0.34202 -0.939693 0   
     length 7.62692   
     axis 0 0 -20   XYZ
    dof rx
    limits (-10.0 170.0)
 end
 begin
     id 9 
     name rfoot
     direction -0.0949276 -0.260811 0.960711   
     length 2.19684  
     axis -90 -7.62852e-016 -20   XYZ
    dof rx rz
    limits (-45.0 90.0)
           (-20.0 70.0)
  end
  begin
     id 10 
     name rtoes
     direction -1.53543e-011 -4.2183e-011 1   
     length 1.09848   
     axis -90 -7.62852e-016 -20   XYZ
    dof rx
    limits (-90.0 20.0)
  end
  begin
     id 11 
     name lowerback
     direction 0.0118782 0.999815 -0.0151555   
     length 2.15772   
     axis 0 0 0   XYZ
    dof rx ry rz
    limits (-20.0 45.0)
           (-30.0 30.0)
           (-30.0 30.0)
  end
  begin
     id 12 
     name upperback
     direction 0.00130825 0.999065 0.0432113   
     length 2.14863   
     axis 0 0 0   XYZ
    dof rx ry rz
    limits (-20.0 45.0)
           (-30.0 30.0)
           (-30.0 30.0)
  end
  begin
     id 13 
     name thorax
     direction -0.00347005 0.998773 0.0494011   
     length 2.14936   
     axis 0 0 0   XYZ
    dof rx ry rz
    limits (-20.0 45.0)
           (-30.0 30.0)
           (-30.0 30.0)
  end
  begin
     id 14 
     name lowerneck
     direction -0.0262159 0.99424 0.103921   
     length 1.69373   
     axis 0 0 0   XYZ
    dof rx ry rz
    limits (-20.0 45.0)
           (-30.0 30.0)
           (-30.0 30.0)
  end
  begin
     id 15 
     name upperneck
     direction 0.0353511 0.977394 -0.20845   
     length 1.70857   
     axis 0 0 0   XYZ
    dof rx ry rz
    limits (-20.0 45.0)
           (-30.0 30.0)
           (-30.0 30.0)
  end
  begin
     id 16
     name head
     direction 0.0139214 0.996594 -0.0812836  
     length 1.72777  
     axis 0 0 0   XYZ
    dof rx ry rz
    limits (-20.0 45.0)
           (-30.0 30.0)
           (-30.0 30.0)
  end
  begin
     id 17 
     name lclavicle
     direction 0.841247 0.537205 -0.0609508  
     length 3.55371  
     axis 0 0 0   XYZ
    dof ry rz
    limits (-20.0 10.0)
           (0.0 20.0)
  end
  begin
     id 18 
     name lhumerus
     direction 1 -4.48964e-011 1.60116e-018   
     length 4.91377   
     axis -180 -30 -90   XYZ
    dof rx ry rz
    limits (-60.0 90.0)
           (-90.0 90.0)
           (-90.0 90.0)
  end
  begin
     id 19
     name lradius
     direction 1 -4.48989e-011 -8.93847e-027   
     length 3.00291   
     axis -180 -30 -90   XYZ
    dof rx
    limits (-10.0 170.0)
  end
  begin
     id 20
     name lwrist
     direction 1 -4.48932e-011 -7.31504e-027   
     length 1.50145   
     axis 5.74121e-015 90 90   XYZ
    dof ry
    limits (-180.0 0.0)
 end
  begin
     id 21 
     name lhand
     direction 1 -4.48971e-011 -1.46301e-026   
     length 0.450922   
     axis 9.33524e-015 90 90   XYZ
    dof rx rz
    limits (-90.0 90.0)
           (-45.0 45.0)
  end
  begin
     id 22 
     name lfingers
     direction 1 -4.49039e-011 -2.92602e-026   
     length 0.363545   
     axis 1.86705e-014 90 90   XYZ
    dof rx
    limits (0.0 90.0)
  end
  begin
     id 23
     name lthumb
     direction 0.707107 -6.34941e-011 0.707107   
     length 0.52198   
     axis -90 45 2.85299e-015   XYZ
    dof rx rz
    limits (-45.0 45.0)
           (-45.0 45.0)
  end
  begin
     id 24 
     name rclavicle
     direction -0.825079 0.56158 -0.0622297   
     length 3.39909  
     axis 0 0 0   XYZ 
    dof ry rz
    limits (-10.0 20.0)
           (-20.0 0.0)
  end
  begin
     id 25 
     name rhumerus
     direction -1 -4.48965e-011 1.61691e-027  
     length 4.86725   
     axis -180 30 90   XYZ
    dof rx ry rz
    limits (-90.0 60.0)
           (-90.0 90.0)
           (-90.0 90.0)
  end
  begin
     id 26 
     name rradius
     direction -1 -4.48964e-011 -2.25776e-027   
     length 3.17144   
     axis -180 30 90   XYZ
    dof rx
    limits (-10.0 170.0)
  end
  begin
     id 27 
     name rwrist
     direction -1 -4.48961e-011 -7.31504e-027   
     length 1.58572   
     axis 5.74121e-015 -90 -90   XYZ
    dof ry
    limits (-180.0 0.0)
  end
  begin
     id 28
     name rhand
     direction -1 -4.49013e-011 -1.46301e-026   
     length 0.419368   
     axis 9.33524e-015 -90 -90   XYZ
    dof rx rz
    limits (-90.0 90.0)
           (-45.0 45.0)
  end
  begin
     id 29
     name rfingers
     direction -1 -4.489e-011 -2.92602e-026   
     length 0.338105   
     axis 1.86705e-014 -90 -90   XYZ
    dof rx
    limits (0.0 90.0)
  end
  begin
     id 30
     name rthumb
     direction -0.707107 -6.35022e-011 0.707107   
     length 0.485453   
     axis -90 -45 -2.85299e-015   XYZ
    dof rx rz
    limits (-45.0 45.0)
           (-45.0 45.0)
  end
:hierarchy
  begin
    root lhipjoint rhipjoint lowerback
    lhipjoint lfemur
    lfemur ltibia
    ltibia lfoot
    lfoot ltoes
    rhipjoint rfemur
    rfemur rtibia
    rtibia rfoot
    rfoot rtoes
    lowerback upperback
    upperback thorax
    thorax lowerneck lclavicle rclavicle
    lowerneck upperneck
    upperneck head
    lclavicle lhumerus
    lhumerus lradius
    lradius lwrist
    lwrist lhand lthumb
    lhand lfingers
    rclavicle rhumerus
    rhumerus rradius
    rradius rwrist
    rwrist rhand rthumb
    rhand rfingers
  end

#!OML:ASF H:\Swim 2\Project 1\Capture day 1\Session 1\male.ASF
:FULLY-SPECIFIED
:DEGREES
1
root 7.52506 9.8938 11.253 92.9086 1.12466 3.15381
lowerback -3.22168 4.40961 -7.75779
upperback -2.87825 6.21566 4.0076
thorax -2.48639 3.40699 8.57052
lowerneck -17.5154 -9.86627 3.80724
upperneck 18.3616 -12.8674 -7.54875
head 7.75136 -6.53494 -4.52295
rclavicle -1.01778e-013 -1.51076e-014
rhumerus 50.623 14.2351 -26.4725
rradius 78.6378
rwrist -42.18
rhand -51.1537 4.53005
rfingers 7.12502
rthumb -23.696 -24.0293
lclavicle -1.01778e-013 -1.51076e-014
lhumerus 61.3031 -27.1176 59.42
lradius 77.5088
lwrist 33.6688
lhand -41.7286 -9.34943
lfingers 7.12502
lthumb -14.6337 20.1142
rfemur -53.6104 -26.4003 20.5299
rtibia 131.692
rfoot 6.70717 4.57034
rtoes 11.4188
lfemur -51.3503 26.7041 -25.5345
ltibia 137.383
lfoot -8.5826 5.73913
ltoes 31.4114
2
root 7.52502 9.8942 11.2536 92.897 1.0999 3.12626
lowerback -3.19546 4.41613 -7.77275
upperback -2.87475 6.22279 4.00136
thorax -2.4999 3.4112 8.56986
lowerneck -17.4784 -9.96495 3.67343
upperneck 18.3071 -12.9982 -7.38697
head 7.74019 -6.58923 -4.45831
rclavicle -1.04958e-013 -6.75868e-015
rhumerus 50.6407 13.9687 -26.7117
rradius 78.6292
rwrist -41.3665
rhand -50.7007 3.09189
rfingers 7.12502
rthumb -23.2615 -25.5231
lclavicle -1.04958e-013 -6.75868e-015
lhumerus 60.6734 -28.1661 60.4665
lradius 77.6424
lwrist 32.5216
lhand -41.7301 -9.51266
lfingers 7.12502
lthumb -14.6351 19.9509
rfemur -53.5801 -26.447 20.4332
rtibia 131.779
rfoot 6.7413 4.58541
rtoes 11.6874
lfemur -51.321 26.7699 -25.5242
ltibia 137.373
lfoot -8.61635 5.73322
ltoes 31.0477
3
root 7.52534 9.894 11.2548 92.9057 1.07218 3.1104
lowerback -3.19201 4.42099 -7.78774
upperback -2.87575 6.22932 3.99222
thorax -2.50488 3.41496 8.56798
lowerneck -17.4403 -10.108 3.46518
upperneck 18.2609 -13.1768 -7.18831
head 7.73726 -6.66661 -4.37624
rclavicle 3.18055e-014 4.01545e-014
rhumerus 50.666 13.7277 -26.9311
rradius 78.6089
rwrist -40.5182
rhand -50.3496 1.9176
rfingers 7.12502
rthumb -22.9246 -26.7395
lclavicle 3.18055e-014 4.01545e-014
lhumerus 60.7826 -28.1612 60.4292
lradius 77.7923
lwrist 32.8261
lhand -41.9512 -9.82542
lfingers 7.12502
lthumb -14.8481 19.6226
rfemur -53.5758 -26.4697 20.3658
rtibia 131.82
rfoot 6.76744 4.62195
rtoes 11.5015
lfemur -51.3315 26.7815 -25.5321
ltibia 137.351
lfoot -8.64857 5.7009
ltoes 30.9468
4
root 7.52539 9.89432 11.2561 92.9148 1.10237 3.11149
lowerback -3.16578 4.39984 -7.71858
upperback -2.86443 6.19647 3.98735
thorax -2.49213 3.39503 8.52255
lowerneck -17.0431 -10.383 3.32631
upperneck 17.4693 -13.5646 -6.99469
head 7.4093 -6.85799 -4.25747
rclavicle -7.95139e-014 -3.33958e-014
rhumerus 50.7657 13.709 -26.9278
rradius 78.8948
rwrist -40.8793
rhand -50.0524 -0.072283
rfingers 7.12502
rthumb -22.6394 -28.7645
lclavicle -7.95139e-014 -3.33958e-014
lhumerus 60.9169 -28.0017 60.3028
lradius 77.9491
lwrist 33.0931
lhand -41.9864 -9.78159
lfingers 7.12502
lthumb -14.8821 19.6639
rfemur -53.5813 -26.5325 20.3959
rtibia 131.875
rfoot 6.80472 4.62709
rtoes 11.5573
lfemur -51.3708 26.8061 -25.4799
ltibia 137.353
lfoot -8.61738 5.70544
ltoes 31.0586
5
root 7.5253 9.89454 11.2573 92.9216 1.1047 3.10755
lowerback -3.14082 4.3812 -7.68279
upperback -2.85521 6.16772 3.97105
thorax -2.4843 3.37812 8.48373
lowerneck -16.747 -10.6534 3.10212
upperneck 16.9144 -13.9363 -6.70788
head 7.19467 -7.03204 -4.11672
rclavicle 6.99722e-014 6.36111e-014
rhumerus 50.8468 13.63 -26.997
rradius 79.1147
rwrist -40.9722
rhand -49.8722 -1.49191
rfingers 7.12502
rthumb -22.4664 -30.2051
lclavicle 6.99722e-014 6.36111e-014
lhumerus 60.9499 -28.0155 60.3118
lradius 78.1065
lwrist 33.1835
lhand -42.0736 -9.86963
lfingers 7.12502
lthumb -14.966 19.5696
rfemur -53.5847 -26.5941 20.3852
rtibia 131.929
rfoot 6.83852 4.63192
rtoes 11.6152
lfemur -51.3972 26.8314 -25.463
ltibia 137.354
lfoot -8.60137 5.71939
ltoes 31.0755
6
root 7.52503 9.89476 11.2586 92.9311 1.10895 3.11028
lowerback -3.11376 4.35375 -7.64339
upperback -2.84407 6.12646 3.94748
thorax -2.4718 3.35427 8.43536
lowerneck -16.4068 -10.9927 2.81947
upperneck 16.2975 -14.3985 -6.35527
head 6.96053 -7.24822 -3.94918
rclavicle 4.13472e-014 1.86858e-014
rhumerus 50.9359 13.5826 -27.0513
rradius 79.3821
rwrist -41.2313
rhand -49.8122 -2.6943
rfingers 7.12502
rthumb -22.4088 -31.4145
lclavicle 4.13472e-014 1.86858e-014
lhumerus 61.036 -27.9342 60.2151
lradius 78.2718
lwrist 33.3523
lhand -42.1647 -9.93219
lfingers 7.12502
lthumb -15.0538 19.5005
rfemur -53.5933 -26.6691 20.3909
rtibia 131.98
rfoot 6.86871 4.63038
rtoes 11.6873
lfemur -51.4326 26.8529 -25.4522
ltibia 137.366
lfoot -8.5734 5.75204
ltoes 31.1528
7
root 7.52452 9.89494 11.26 92.9415 1.11467 3.11783
lowerback -3.08566 4.31891 -7.60616
upperback -2.83137 6.07492 3.91722
thorax -2.45572 3.32487 8.38138
lowerneck -16.0459 -11.4031 2.48204
upperneck 15.668 -14.9525 -5.9455
head 6.72766 -7.50711 -3.7628
rclavicle 1.59028e-014 -5.20816e-014
rhumerus 51.024 13.5454 -27.1156
rradius 79.6719
rwrist -41.5424
rhand -49.8864 -3.48246
rfingers 7.12502
rthumb -22.4801 -32.194
lclavicle 1.59028e-014 -5.20816e-014
lhumerus 61.12 -27.8438 60.0919
lradius 78.4488
lwrist 33.5001
lhand -42.2465 -9.9582
lfingers 7.12502
lthumb -15.1326 19.4686
rfemur -53.6065 -26.753 20.4125
rtibia 132.027
rfoot 6.89984 4.62803
rtoes 11.7764
lfemur -51.4729 26.8774 -25.4442
ltibia 137.391
lfoot -8.54085 5.7979
ltoes 31.2563
8
root 7.5238 9.89501 11.2617 92.9514 1.1174 3.12912
lowerback -3.05645 4.27732 -7.5777
upperback -2.81803 6.01411 3.87929
thorax -2.43791 3.2907 8.32441
lowerneck -15.6682 -11.8887 2.0951
upperneck 15.0488 -15.6021 -5.49077
head 6.50433 -7.81124 -3.56413
rclavicle 3.18055e-015 -5.96354e-016
rhumerus 51.1062 13.5092 -27.2067
rradius 79.9661
rwrist -41.819
rhand -50.0493 -3.84029
rfingers 7.12502
rthumb -22.6364 -32.5329
lclavicle 3.18055e-015 -5.96354e-016
lhumerus 61.1976 -27.7486 59.9435
lradius 78.6438
lwrist 33.6421
lhand -42.3239 -9.92594
lfingers 7.12502
lthumb -15.2071 19.4952
rfemur -53.6224 -26.8434 20.4417
rtibia 132.069
rfoot 6.93255 4.64172
rtoes 11.8437
lfemur -51.5128 26.9025 -25.4423
ltibia 137.427
lfoot -8.50899 5.85003
ltoes 31.3775
9
root 7.5229 9.89496 11.2636 92.9611 1.12125 3.14399
lowerback -3.02667 4.22877 -7.55627
upperback -2.80335 5.94377 3.83501
thorax -2.4173 3.25155 8.26495
lowerneck -15.2862 -12.4517 1.6476
upperneck 14.4688 -16.3488 -4.98293
head 6.30546 -8.16074 -3.35235
rclavicle 1.27222e-014 1.61016e-014
rhumerus 51.1834 13.4546 -27.3499
rradius 80.2463
rwrist -41.954
rhand -50.2882 -3.76649
rfingers 7.12502
rthumb -22.8657 -32.4309
lclavicle 1.27222e-014 1.61016e-014
lhumerus 61.2717 -27.6494 59.763
lradius 78.8696
lwrist 33.7989
lhand -42.4072 -9.86547
lfingers 7.12502
lthumb -15.2874 19.5496
rfemur -53.6424 -26.9333 20.485
rtibia 132.101
rfoot 6.96508 4.68932
rtoes 11.8253
lfemur -51.5523 26.9342 -25.438
ltibia 137.476
lfoot -8.48631 5.89985
ltoes 31.5017
10
root 7.52183 9.89475 11.2658 92.9708 1.12125 3.1608
lowerback -2.99446 4.16892 -7.54307
upperback -2.78901 5.85781 3.78123
thorax -2.39527 3.20443 8.20027
lowerneck -14.8616 -13.0831 1.20071
upperneck 13.8447 -17.1893 -4.46324
head 6.09123 -8.55755 -3.14036
rclavicle -2.22639e-014 -3.57812e-015
rhumerus 51.2654 13.4081 -27.5354
rradius 80.5396
rwrist -42.046
rhand -50.4831 -3.62062
rfingers 7.12502
rthumb -23.0527 -32.2618
lclavicle -2.22639e-014 -3.57812e-015
lhumerus 61.3312 -27.5391 59.5433
lradius 79.1373
lwrist 33.994
lhand -42.4918 -9.76754
lfingers 7.12502
lthumb -15.3689 19.6413
rfemur -53.6676 -27.0219 20.5333
rtibia 132.128
rfoot 6.99212 4.78493
rtoes 11.6627
lfemur -51.5906 26.9672 -25.4386
ltibia 137.536
lfoot -8.47304 5.94384
ltoes 31.6185
11
root 7.52067 9.89437 11.2681 92.9811 1.11832 3.1791
lowerback -2.95843 4.09595 -7.53299
upperback -2.77339 5.75351 3.71692
thorax -2.36978 3.14762 8.12638
lowerneck -14.3839 -13.7834 0.735461
upperneck 13.1665 -18.1247 -3.8981
head 5.86344 -9.00119 -2.91454
rclavicle -5.08889e-014 -1.66979e-014
rhumerus 51.3593 13.3765 -27.7605
rradius 80.8671
rwrist -42.1356
rhand -50.6993 -3.47531
rfingers 7.12502
rthumb -23.2601 -32.0904
lclavicle -5.08889e-014 -1.66979e-014
lhumerus 61.3742 -27.4122 59.281
lradius 79.4571
lwrist 34.2462
lhand -42.5731 -9.61588
lfingers 7.12502
lthumb -15.4472 19.7869
rfemur -53.6984 -27.1054 20.5861
rtibia 132.148
rfoot 7.01986 4.93297
rtoes 11.3885
lfemur -51.628 27.0043 -25.4417
ltibia 137.606
lfoot -8.4707 5.98169
ltoes 31.7288
